<svg width="144" height="48" viewBox="0 0 144 48" fill="none" xmlns="http://www.w3.org/2000/svg">
<path d="M132.562 0H9.0301C8.18729 0 7.46488 0.12 6.62207 0.24C5.89967 0.36 5.05686 0.6 4.33445 0.96C3.61204 1.32 3.01003 1.8 2.40803 2.4C1.80602 3 1.32441 3.6 0.963211 4.32C0.602007 5.04 0.361204 5.88 0.240803 6.6C0.120401 7.44 0 8.28 0 9V38.88C0 39.72 0.120401 40.44 0.240803 41.28C0.361204 42.12 0.602007 42.84 0.963211 43.56C1.32441 44.4 1.80602 45 2.40803 45.6C3.01003 46.2 3.61204 46.68 4.33445 47.04C5.05686 47.4 5.77926 47.64 6.62207 47.76C7.46488 47.88 8.18729 48 9.0301 48H134.97C135.813 48 136.535 47.88 137.378 47.76C138.221 47.64 138.943 47.4 139.666 47.04C140.388 46.68 140.99 46.2 141.592 45.6C142.194 45 142.676 44.4 143.037 43.68C143.398 42.96 143.639 42.24 143.759 41.4C143.88 40.56 144 39.84 144 39V9C144 8.16 143.88 7.44 143.759 6.6C143.639 5.76 143.398 5.04 143.037 4.32C142.314 2.88 141.11 1.68 139.666 0.96C138.943 0.6 138.221 0.36 137.378 0.24C136.535 0.12 135.813 0 134.97 0H132.562V0Z" fill="black"/>
<path d="M10.1134 46.9198H9.02978C8.30737 46.9198 7.46456 46.7998 6.74216 46.6798C6.01975 46.5598 5.41774 46.3198 4.69533 46.0798C4.09333 45.7198 3.49132 45.3598 3.00971 44.8798C2.52811 44.3998 2.0465 43.7998 1.8057 43.1998C1.4445 42.5998 1.32409 41.8798 1.20369 41.1598C1.08329 40.4398 0.962891 39.7198 0.962891 38.8798V8.99984C0.962891 8.27984 1.08329 7.43984 1.20369 6.71984C1.32409 6.11983 1.5649 5.39984 1.9261 4.79983C2.28731 4.19983 2.64851 3.59983 3.13012 3.11983C3.61172 2.63983 4.21373 2.27983 4.81573 1.91983C5.41774 1.55983 6.14015 1.43983 6.86256 1.31983C7.58496 1.19983 8.30737 1.07983 9.15018 1.07983H135.09C135.812 1.07983 136.535 1.19983 137.378 1.31983C138.1 1.43983 138.702 1.67983 139.424 1.91983C140.628 2.51983 141.712 3.59983 142.314 4.79983C142.675 5.39984 142.796 6.11983 142.916 6.71984C143.036 7.43984 143.157 8.27984 143.157 8.99984V38.8798C143.157 39.5998 143.036 40.3198 142.916 41.1598C142.796 41.8798 142.555 42.4798 142.314 43.1998C141.953 43.7998 141.592 44.3998 141.11 44.8798C140.628 45.3598 140.026 45.8398 139.424 46.0798C138.822 46.4398 138.1 46.6798 137.378 46.6798C136.655 46.7998 135.933 46.9198 135.09 46.9198H10.1134Z" fill="black"/>
<path d="M29.86 24.3601C29.86 22.3201 30.9437 20.4001 32.7497 19.3201C31.6661 17.7601 29.86 16.8001 27.9336 16.6801C25.8868 16.4401 23.9604 17.8801 22.8768 17.8801C21.7931 17.8801 20.2279 16.6801 18.5423 16.6801C16.2547 16.8001 14.2079 18.0001 13.1243 19.9201C10.8366 23.8801 12.5222 29.8801 14.8099 33.1201C15.8935 34.6801 17.2179 36.4801 18.9035 36.4801C20.5891 36.3601 21.1911 35.4001 23.238 35.4001C25.2848 35.4001 25.7664 36.4801 27.5724 36.4801C29.3784 36.4801 30.462 34.9201 31.5457 33.2401C32.3885 32.1601 32.9905 30.8401 33.3517 29.5201C31.1845 28.8001 29.86 26.6401 29.86 24.3601ZM26.4888 14.6401C27.452 13.4401 27.9336 12.0001 27.8132 10.4401C26.3684 10.5601 24.9236 11.2801 23.9604 12.4801C22.9972 13.5601 22.5156 15.0001 22.636 16.5601C24.2012 16.5601 25.5256 15.8401 26.4888 14.6401ZM50.9303 32.5201H45.2714L43.947 36.6001H41.539L46.957 21.7201H49.3651L54.7831 36.6001H52.3751L50.9303 32.5201ZM45.8734 30.7201H50.4487L48.161 24.1201H48.0406L45.8734 30.7201ZM66.462 31.2001C66.462 34.5601 64.656 36.7201 61.8868 36.7201C60.442 36.8401 59.1176 36.0001 58.5156 34.8001V40.2001H56.2279V25.8001H58.3952V27.6001C59.1176 26.4001 60.442 25.6801 61.8868 25.6801C64.5356 25.5601 66.462 27.8401 66.462 31.2001ZM64.054 31.2001C64.054 29.0401 62.9704 27.6001 61.1644 27.6001C59.4788 27.6001 58.2748 29.0401 58.2748 31.2001C58.2748 33.3601 59.4788 34.8001 61.1644 34.8001C62.9704 34.8001 64.054 33.3601 64.054 31.2001ZM78.3818 31.2001C78.3818 34.5601 76.5758 36.7201 73.8065 36.7201C72.3617 36.8401 71.0373 36.0001 70.4353 34.8001V40.2001H68.1477V25.8001H70.3149V27.6001C71.0373 26.4001 72.3617 25.6801 73.8065 25.6801C76.5758 25.5601 78.3818 27.8401 78.3818 31.2001ZM76.0942 31.2001C76.0942 29.0401 75.0105 27.6001 73.2045 27.6001C71.5189 27.6001 70.3149 29.0401 70.3149 31.2001C70.3149 33.3601 71.5189 34.8001 73.2045 34.8001C75.0105 34.8001 76.0942 33.3601 76.0942 31.2001ZM86.3283 32.4001C86.4487 33.8401 87.8935 34.8001 89.9403 34.8001C91.8667 34.8001 93.1912 33.8401 93.1912 32.5201C93.1912 31.3201 92.3483 30.7201 90.4219 30.2401L88.4955 29.7601C85.7263 29.1601 84.5222 27.8401 84.5222 25.8001C84.5222 23.2801 86.8099 21.4801 89.9403 21.4801C93.0707 21.4801 95.238 23.2801 95.3584 25.8001H93.0708C92.9504 24.3601 91.7463 23.4001 89.9403 23.4001C88.1343 23.4001 86.9303 24.3601 86.9303 25.6801C86.9303 26.7601 87.7731 27.3601 89.6995 27.8401L91.3851 28.2001C94.3952 28.9201 95.7196 30.1201 95.7196 32.2801C95.7196 35.0401 93.5524 36.8401 89.9403 36.8401C86.5691 36.8401 84.4018 35.1601 84.2814 32.4001H86.3283ZM100.295 23.1601V25.6801H102.342V27.4801H100.295V33.4801C100.295 34.4401 100.656 34.8001 101.619 34.8001H102.342V36.6001C101.98 36.7201 101.499 36.7201 101.138 36.7201C98.9704 36.7201 98.1276 35.8801 98.1276 33.8401V27.6001H96.5624V25.8001H98.1276V23.2801H100.295V23.1601ZM103.666 31.2001C103.666 27.8401 105.713 25.6801 108.843 25.6801C111.974 25.6801 114.021 27.8401 114.021 31.2001C114.021 34.6801 111.974 36.7201 108.843 36.7201C105.592 36.7201 103.666 34.5601 103.666 31.2001ZM111.733 31.2001C111.733 28.8001 110.649 27.4801 108.843 27.4801C107.037 27.4801 105.954 28.8001 105.954 31.2001C105.954 33.6001 107.037 34.9201 108.843 34.9201C110.649 34.9201 111.733 33.4801 111.733 31.2001ZM115.827 25.6801H117.994V27.6001C118.235 26.4001 119.439 25.5601 120.643 25.6801C120.883 25.6801 121.124 25.6801 121.365 25.8001V27.8401C121.004 27.7201 120.643 27.7201 120.402 27.7201C119.198 27.7201 118.114 28.6801 118.114 29.8801V36.7201H115.827V25.6801ZM131.72 33.3601C131.479 35.2801 129.552 36.7201 127.024 36.7201C123.893 36.7201 121.847 34.5601 121.847 31.2001C121.847 27.8401 123.773 25.5601 126.904 25.5601C129.914 25.5601 131.84 27.6001 131.84 30.9601V31.6801H124.134V31.8001C124.014 33.3601 125.098 34.6801 126.663 34.9201H127.024C128.108 35.0401 129.191 34.4401 129.552 33.3601H131.72ZM124.134 30.1201H129.552C129.673 28.6801 128.469 27.4801 127.024 27.3601H126.783C125.338 27.3601 124.134 28.5601 124.134 30.1201ZM45.5122 10.4401C47.3182 10.3201 48.763 11.6401 48.8834 13.3201V13.9201C48.8834 16.2001 47.6794 17.5201 45.5122 17.5201H42.8634V10.3201L45.5122 10.4401ZM44.0674 16.6801H45.3918C46.5958 16.8001 47.6794 15.8401 47.7998 14.5201V14.0401C47.9202 12.8401 47.0774 11.6401 45.8734 11.5201H44.0674V16.6801ZM50.2079 14.8801C50.0875 13.4401 51.1711 12.2401 52.4955 12.1201C53.9403 12.0001 55.1443 13.0801 55.2647 14.4001V14.8801C55.3851 16.3201 54.4219 17.5201 52.9771 17.6401C51.5323 17.7601 50.3283 16.8001 50.2079 15.3601V14.8801ZM54.1811 14.8801C54.1811 13.6801 53.6995 13.0801 52.7363 13.0801C51.7731 13.0801 51.2915 13.8001 51.2915 14.8801C51.2915 16.0801 51.7731 16.8001 52.7363 16.8001C53.6995 16.8001 54.1811 16.0801 54.1811 14.8801ZM62.1276 17.6401H61.044L59.9604 13.6801H59.84L58.7564 17.6401H57.6728L56.2279 12.2401H57.3115L58.2748 16.3201H58.3952L59.4788 12.2401H60.5624L61.646 16.3201H61.7664L62.7296 12.2401H63.8132L62.1276 17.6401ZM64.8968 12.2401H65.9804V13.0801H66.1008C66.3416 12.4801 67.0641 12.1201 67.6661 12.1201C68.6293 12.0001 69.4721 12.7201 69.5925 13.8001V17.6401H68.5089V14.4001C68.5089 13.5601 68.1477 13.0801 67.3049 13.0801C66.5825 13.0801 65.9804 13.5601 65.9804 14.2801V17.6401H64.8968V12.2401ZM71.1577 10.0801H72.2413V17.6401H71.1577V10.0801ZM73.6861 14.8801C73.5657 13.4401 74.5289 12.2401 75.9738 12.1201C77.4186 12.0001 78.6226 12.9601 78.743 14.4001V14.8801C78.8634 16.3201 77.9002 17.5201 76.4554 17.6401C75.0105 17.7601 73.8065 16.8001 73.6861 15.3601V14.8801ZM77.7798 14.8801C77.7798 13.6801 77.2982 13.0801 76.335 13.0801C75.3717 13.0801 74.8901 13.8001 74.8901 14.8801C74.8901 16.0801 75.3717 16.8001 76.335 16.8001C77.1778 16.8001 77.7798 16.0801 77.7798 14.8801ZM79.947 16.0801C79.947 15.1201 80.6694 14.5201 81.9938 14.5201L83.4386 14.4001V13.9201C83.4386 13.3201 83.0774 13.0801 82.355 13.0801C81.753 13.0801 81.3918 13.3201 81.2714 13.6801H80.1878C80.3082 12.7201 81.151 12.1201 82.355 12.1201C83.6794 12.1201 84.5222 12.8401 84.5222 13.9201V17.6401H83.4386V16.9201H83.3182C82.957 17.5201 82.355 17.7601 81.6326 17.7601C80.7898 17.8801 79.947 17.1601 79.8266 16.3201C79.947 16.2001 79.947 16.2001 79.947 16.0801ZM83.4386 15.6001V15.1201L82.1142 15.2401C81.3918 15.2401 81.0306 15.6001 81.0306 15.9601C81.0306 16.4401 81.5122 16.6801 81.9938 16.6801C82.7162 16.9201 83.3182 16.4401 83.4386 15.6001C83.4386 15.7201 83.4386 15.7201 83.4386 15.6001ZM85.8467 14.8801C85.8467 13.2001 86.6895 12.1201 88.1343 12.1201C88.8567 12.1201 89.4587 12.4801 89.8199 13.0801H89.9403V10.0801H91.0239V17.6401H89.9403V16.8001H89.8199C89.4587 17.4001 88.8567 17.7601 88.1343 17.7601C86.8099 17.7601 85.8467 16.6801 85.8467 14.8801ZM87.0507 14.8801C87.0507 16.0801 87.5323 16.6801 88.4955 16.6801C89.4587 16.6801 89.9403 15.9601 89.9403 14.8801C89.9403 13.8001 89.3383 13.0801 88.4955 13.0801C87.5323 13.0801 87.0507 13.8001 87.0507 14.8801ZM95.3584 14.8801C95.238 13.4401 96.2012 12.2401 97.646 12.1201C99.0908 12.0001 100.295 12.9601 100.415 14.4001V14.8801C100.536 16.3201 99.5724 17.5201 98.1276 17.6401C96.6828 17.7601 95.4788 16.8001 95.3584 15.3601V14.8801ZM99.452 14.8801C99.452 13.6801 98.9704 13.0801 98.0072 13.0801C97.044 13.0801 96.5624 13.8001 96.5624 14.8801C96.5624 16.0801 97.044 16.8001 98.0072 16.8001C98.85 16.8001 99.452 16.0801 99.452 14.8801ZM101.98 12.2401H103.064V13.0801H103.184C103.425 12.4801 104.148 12.1201 104.75 12.1201C105.713 12.0001 106.556 12.7201 106.676 13.8001V17.6401H105.592V14.4001C105.592 13.5601 105.231 13.0801 104.388 13.0801C103.666 13.0801 103.064 13.5601 103.064 14.2801V17.6401H101.98V12.2401ZM112.576 10.9201V12.2401H113.78V13.2001H112.576V15.9601C112.576 16.5601 112.817 16.8001 113.298 16.8001H113.659V17.6401H113.057C111.853 17.6401 111.372 17.2801 111.372 16.2001V13.2001H110.529V12.3601H111.372V10.9201H112.576ZM115.225 10.0801H116.308V13.0801H116.429C116.669 12.4801 117.392 12.0001 118.114 12.1201C119.077 12.1201 119.92 12.8401 120.041 13.8001V17.6401H118.957V14.4001C118.957 13.5601 118.596 13.0801 117.753 13.0801C117.031 13.0801 116.429 13.5601 116.429 14.2801V17.6401H115.345V10.0801H115.225ZM126.181 16.2001C125.94 17.1601 124.857 17.8801 123.893 17.7601C122.569 17.7601 121.365 16.6801 121.365 15.3601V15.0001C121.124 13.6801 122.087 12.3601 123.532 12.2401H123.893C125.459 12.2401 126.302 13.3201 126.302 15.0001V15.3601H122.449V15.4801C122.328 16.3201 122.93 16.9201 123.773 17.0401H123.893C124.375 17.1601 124.977 16.8001 125.218 16.4401H126.181V16.2001ZM122.328 14.4001H125.098C125.098 13.6801 124.616 13.0801 123.893 12.9601H123.773C123.051 13.0801 122.328 13.6801 122.328 14.4001Z" fill="white"/>
</svg>
