<svg width="115" height="107" viewBox="0 0 115 107" fill="none" xmlns="http://www.w3.org/2000/svg">
<path fill-rule="evenodd" clip-rule="evenodd" d="M18.7248 2.97021C31.6431 -2.70905 43.6809 -0.0273798 54.1888 9.16444C56.7664 11.4188 57.8678 12.1109 60.7293 9.3498C71.9469 -1.47641 88.7383 -2.81405 101.28 5.61445C113.624 13.9069 118.206 29.7915 112.69 45.2552C108.827 56.1024 101.55 64.5683 93.9131 72.7567C82.9884 84.4768 70.3746 94.3853 59.2828 105.932C58.1643 107.096 57.3395 107.515 56 106.126C41.346 90.9349 24.2096 78.2962 11.3614 61.2466C4.8739 52.6391 0.1698 43.3222 0 31.2889C0.64596 18.7023 6.39043 8.39382 18.7248 2.97021Z" fill="url(#paint0_linear)"/>
<defs>
<linearGradient id="paint0_linear" x1="-30.7724" y1="39.5988" x2="33.7482" y2="120.328" gradientUnits="userSpaceOnUse">
<stop stop-color="#CFE61F"/>
<stop offset="1" stop-color="#A3CC0E"/>
</linearGradient>
</defs>
</svg>


