<svg width="48" height="48" viewBox="0 0 48 48" fill="none" xmlns="http://www.w3.org/2000/svg">
    <circle cx="24" cy="24" r="24" fill="#0299FF"/>
    <path d="M38.1254 18.0347C37.4544 17.3621 36.0642 17.7533 35.7325 18.0346C35.4151 18.3038 32.1729 20.6806 29.0265 22.7966C28.7501 22.9824 28.4245 23.0807 28.0915 23.0807C27.7155 23.0807 27.3503 22.9551 27.0539 22.7239L21.8469 18.6623C21.526 18.2961 19.0244 17.7452 17.7301 19.8005L11.1443 30.2854C10.8293 30.707 10.8308 31.3887 11.1478 31.8078C11.4011 32.143 12.266 32.0345 12.5801 31.8078L19.412 26.6995C19.7126 26.4747 20.0777 26.3533 20.453 26.3533C20.7878 26.3534 21.1132 26.4486 21.394 26.6308C22.7622 27.5183 26.9705 30.2572 27.5113 30.7169C28.1585 31.2671 29.4528 31.2671 30.0999 30.7456C30.7471 30.2242 37.8969 20.3208 38.1254 20.0138C38.3539 19.7069 38.7964 18.7073 38.1254 18.0347Z" fill="white"/>
</svg>
