<svg width="48" height="48" viewBox="0 0 48 48" fill="none" xmlns="http://www.w3.org/2000/svg">
    <path d="M24 48C37.2548 48 48 37.2548 48 24C48 10.7452 37.2548 0 24 0C10.7452 0 0 10.7452 0 24C0 37.2548 10.7452 48 24 48Z" fill="#6F3FAA"/>
    <path d="M23.1343 14.1512C23.3233 14 23.4367 14 24.0415 14C24.3439 14 24.7975 14.0378 25.0621 14.0756C26.3096 14.2268 27.1035 14.4159 28.1997 14.9451C29.296 15.4743 29.9764 15.9657 30.9215 16.8352C31.7909 17.6668 32.2446 18.3095 32.7738 19.3301C33.492 20.7288 33.87 22.3543 33.9457 24.1687C33.9835 24.7736 33.9457 24.9248 33.7944 25.1138C33.5298 25.454 32.925 25.4162 32.6982 25.0004C32.6226 24.887 32.6226 24.7736 32.5848 24.2822C32.547 23.5262 32.5092 23.0347 32.3958 22.4299C31.98 20.124 30.8459 18.2717 29.0314 16.9486C27.5193 15.8523 26.1963 15.4365 24.1549 15.2853C23.4367 15.2853 23.3233 15.2853 23.1721 15.1341C22.8697 14.9451 22.8697 14.4158 23.1343 14.1512Z" fill="white"/>
    <path d="M26.8765 18.8757C26.1582 18.4599 25.062 18.1197 24.0791 18.0441C23.7389 18.0063 23.5121 17.9307 23.3987 17.7795C23.1718 17.5905 23.1718 17.2502 23.323 17.0235C23.5121 16.721 23.8145 16.6832 24.6839 16.8344C26.8764 17.1368 28.5775 18.1575 29.7116 19.783C30.3542 20.6902 30.7322 21.7865 30.8456 22.9206C30.8835 23.3364 30.8835 24.0924 30.8456 24.2436C30.8078 24.357 30.6566 24.5461 30.5054 24.5839C30.3542 24.6595 30.0518 24.6595 29.9006 24.5461C29.636 24.3949 29.5225 24.2058 29.5225 23.601C29.5225 22.6938 29.2957 21.7109 28.8421 20.9549C28.3885 20.0854 27.7081 19.3672 26.8765 18.8757Z" fill="white"/>
    <path d="M27.8227 23.8645C27.5959 24.0535 27.2179 24.0535 26.9911 23.8645C26.802 23.7511 26.7642 23.5999 26.7265 23.2218C26.6886 22.7304 26.5752 22.3902 26.4619 22.0877C26.1594 21.4073 25.5924 21.0671 24.6474 20.9537C24.1938 20.9159 24.0804 20.8403 23.9292 20.6891C23.6646 20.3867 23.7779 19.8952 24.1182 19.7062C24.2694 19.6306 24.3072 19.6306 24.6096 19.6684C24.7986 19.6684 25.0632 19.7062 25.2144 19.744C25.9327 19.8952 26.4619 20.1598 26.9533 20.5757C27.5582 21.1427 27.8984 21.7853 28.0118 22.7682C28.0873 23.4108 28.0495 23.6754 27.8227 23.8645Z" fill="white"/>
    <path d="M33.9086 31.9188C33.9086 31.5785 33.7952 31.3139 33.5684 31.0493C33.3415 30.7847 31.7917 29.5373 31.0356 29.0458C30.4686 28.6678 29.5992 28.1386 29.2212 27.9496C28.6919 27.685 28.1627 27.6472 27.6713 27.7984C27.5579 27.8362 27.4823 27.874 27.4067 27.9118C27.1798 28.0252 26.9909 28.252 26.5372 28.7812C26.2348 29.1592 25.9702 29.4994 25.9324 29.4994C25.9324 29.4994 25.8946 29.4994 25.8946 29.5372C25.8568 29.575 25.7434 29.6129 25.6678 29.6506C25.1763 29.8775 24.5337 29.7263 23.4753 29.2348C22.6436 28.819 21.9254 28.3276 21.0937 27.5715C20.3755 26.9289 19.6572 26.1351 19.2792 25.4924C18.75 24.6608 18.372 23.6023 18.372 22.9975C18.372 22.7329 18.4854 22.3927 18.5988 22.2036L18.6366 22.1658C18.6366 22.1658 18.6366 22.1658 18.6745 22.128C18.7123 22.0902 18.7501 22.0524 18.7879 22.0524C18.9391 21.939 19.1281 21.75 19.3171 21.5988C20.1865 20.9183 20.3755 20.6915 20.489 20.3135C20.6024 19.9355 20.489 19.4441 20.1109 18.7636C19.4304 17.5162 17.5403 15.1347 16.8599 14.681C16.7465 14.6054 16.5575 14.5298 16.4441 14.4542C16.1417 14.3786 15.7259 14.3408 15.499 14.3786C15.1588 14.4542 14.743 14.7188 13.7979 15.3992C13.2309 15.815 12.4749 16.5333 12.2859 16.8357C11.8701 17.5539 11.9078 18.121 12.3993 19.5197C12.8529 20.7671 13.4577 22.0146 14.1382 23.2242L14.176 23.2621C14.3272 23.4889 14.4784 23.7535 14.6296 23.9803C14.6296 24.0181 14.6674 24.0181 14.6674 24.0559C14.8186 24.2827 14.9698 24.5473 15.121 24.7741C15.1967 24.8497 15.2344 24.9631 15.3101 25.0387C15.4234 25.2277 15.5369 25.3789 15.6881 25.568C15.8771 25.8326 16.0661 26.0972 16.2929 26.3618C18.4476 29.1592 20.9426 31.4273 23.8911 33.2796C23.9289 33.3174 23.9667 33.3174 24.0045 33.3552C24.4581 33.6198 24.9117 33.8845 25.3654 34.1491C25.441 34.1869 25.4788 34.2247 25.5544 34.2625C26.008 34.5271 26.4994 34.7539 26.9909 34.9807C27.0287 35.0185 27.1043 35.0185 27.1421 35.0563C27.6335 35.2831 28.1627 35.5099 28.692 35.7367C29.3346 36.0014 29.5614 36.0392 30.0528 36.0014C30.2796 36.0014 30.5064 35.9635 30.6955 35.888C30.9979 35.8123 31.2625 35.6611 31.6027 35.4343C31.6783 35.3965 31.7161 35.3587 31.7917 35.3209C31.8673 35.2831 31.9429 35.2075 32.0185 35.1319C32.4344 34.7917 32.888 34.2625 33.266 33.7711C33.5306 33.4308 33.7196 33.0906 33.833 32.826C33.8708 32.448 33.9086 32.1834 33.9086 31.9188Z" fill="white"/>
</svg>
