<svg width="48" height="48" viewBox="0 0 48 48" fill="none" xmlns="http://www.w3.org/2000/svg">
    <path d="M24 48C37.2548 48 48 37.2548 48 24C48 10.7452 37.2548 0 24 0C10.7452 0 0 10.7452 0 24C0 37.2548 10.7452 48 24 48Z" fill="#62D755"/>
    <path d="M30.7155 26.0892C30.661 26.063 28.6197 25.0578 28.257 24.9273C28.1089 24.8741 27.9502 24.8222 27.7815 24.8222C27.5059 24.8222 27.2743 24.9595 27.094 25.2294C26.89 25.5324 26.2728 26.254 26.082 26.4695C26.0571 26.498 26.0231 26.532 26.0028 26.532C25.9845 26.532 25.6686 26.4019 25.5729 26.3604C23.3832 25.4092 21.7211 23.1218 21.4932 22.7361C21.4607 22.6806 21.4593 22.6555 21.459 22.6555C21.467 22.6261 21.5407 22.5523 21.5787 22.5142C21.6899 22.4042 21.8103 22.2592 21.9269 22.1189C21.982 22.0524 22.0373 21.9859 22.0916 21.9232C22.2607 21.7264 22.3359 21.5737 22.4232 21.3968L22.4689 21.3049C22.682 20.8815 22.5 20.5243 22.4412 20.4089C22.3929 20.3124 21.531 18.2322 21.4394 18.0136C21.219 17.4863 20.9279 17.2407 20.5232 17.2407C20.4857 17.2407 20.5232 17.2407 20.3658 17.2474C20.174 17.2554 19.1299 17.3929 18.6683 17.6839C18.1788 17.9925 17.3506 18.9764 17.3506 20.7065C17.3506 22.2637 18.3388 23.734 18.763 24.2932C18.7736 24.3073 18.7929 24.3359 18.821 24.377C20.4459 26.7499 22.4714 28.5084 24.5248 29.3287C26.5016 30.1184 27.4377 30.2096 27.9699 30.2096C27.9699 30.2096 27.97 30.2096 27.97 30.2096C28.1936 30.2096 28.3726 30.1921 28.5305 30.1765L28.6307 30.167C29.3136 30.1065 30.8143 29.3288 31.1557 28.3802C31.4246 27.633 31.4955 26.8166 31.3166 26.5204C31.194 26.3189 30.9829 26.2175 30.7155 26.0892Z" fill="white"/>
    <path d="M24.2499 10C16.6666 10 10.4971 16.1231 10.4971 23.6494C10.4971 26.0836 11.1486 28.4665 12.3827 30.5519L10.0206 37.5196C9.97659 37.6495 10.0093 37.7932 10.1054 37.891C10.1748 37.9618 10.2689 38 10.365 38C10.4018 38 10.4389 37.9945 10.475 37.9829L17.7405 35.6742C19.7287 36.7364 21.9758 37.2972 24.25 37.2972C31.8325 37.2973 38.0013 31.1748 38.0013 23.6494C38.0013 16.1231 31.8325 10 24.2499 10ZM24.2499 34.454C22.11 34.454 20.0373 33.8361 18.2557 32.667C18.1958 32.6276 18.1262 32.6075 18.0562 32.6075C18.0192 32.6075 17.9821 32.6131 17.946 32.6245L14.3065 33.7815L15.4814 30.3152C15.5194 30.203 15.5004 30.0793 15.4304 29.9836C14.0737 28.1298 13.3565 25.9395 13.3565 23.6494C13.3565 17.6909 18.2432 12.8433 24.2498 12.8433C30.2556 12.8433 35.1418 17.6909 35.1418 23.6494C35.1419 29.6071 30.2558 34.454 24.2499 34.454Z" fill="white"/>
</svg>
